<svg xmlns="http://www.w3.org/2000/svg" width="1319" height="720" viewBox="0 0 1319 720">

<path d="M 171.00 181.50 L 169.50 181.00 L 170.50 177.00 L 167.50 168.00 L 168.50 162.00 L 162.50 154.00 L 162.50 150.00 L 159.00 146.50 L 149.00 147.50 L 146.00 145.50 L 144.50 144.00 L 145.50 141.00 L 144.00 139.50 L 143.00 140.50 L 135.50 133.00 L 136.50 132.00 L 130.50 125.00 L 131.50 122.00 L 130.00 120.50 L 127.50 122.00 L 129.50 116.00 L 128.50 106.00 L 135.50 93.00 L 153.50 79.00 L 158.50 64.00 L 165.00 56.50 L 170.50 53.00 L 170.00 51.50 L 176.00 51.50 L 178.00 49.50 L 188.00 49.50 L 189.50 48.00 L 192.50 43.00 L 191.00 41.50 L 188.00 45.50 L 185.00 46.50 L 185.50 44.00 L 180.50 37.00 L 180.50 33.00 L 182.00 33.50 L 184.50 30.00 L 184.50 24.00 L 198.00 19.50 L 202.00 25.50 L 205.00 22.50 L 211.50 28.00 L 210.50 29.00 L 212.00 30.50 L 216.00 28.50 L 217.50 30.00 L 216.50 35.00 L 215.00 36.50 L 213.00 35.50 L 210.50 38.00 L 213.50 40.00 L 209.50 45.00 L 211.00 47.50 L 220.50 36.00 L 223.50 35.00 L 224.00 32.50 L 230.00 30.50 L 234.00 31.50 L 236.00 29.50 L 241.00 29.50 L 246.00 32.50 L 248.00 31.50 L 250.00 33.50 L 252.00 32.50 L 253.00 35.50 L 256.00 35.50 L 263.00 41.50 L 274.00 40.50 L 276.00 38.50 L 289.00 40.50 L 297.00 38.50 L 296.50 40.00 L 301.50 44.00 L 300.50 45.00 L 312.50 59.00 L 314.50 63.00 L 315.50 75.00 L 318.50 77.00 L 317.50 86.00 L 314.00 82.50 L 312.00 83.50 L 308.50 90.00 L 302.50 96.00 L 307.50 110.00 L 306.50 112.00 L 311.00 117.50 L 313.50 116.00 L 312.50 115.00 L 314.00 113.50 L 315.50 114.00 L 314.50 124.00 L 302.00 129.50 L 299.00 128.50 L 296.00 131.50 L 289.00 134.50 L 277.00 136.50 L 268.00 141.50 L 266.00 140.50 L 255.00 144.50 L 254.00 147.50 L 248.00 147.50 L 246.50 149.00 L 247.00 151.50 L 242.00 149.50 L 234.00 157.50 L 234.50 154.00 L 233.00 152.50 L 225.00 157.50 L 222.00 156.50 L 219.00 160.50 L 216.00 161.50 L 213.00 159.50 L 191.00 168.50 L 188.00 168.50 L 184.00 172.50 L 179.00 173.50 L 176.50 176.00 L 177.50 178.00 L 171.00 181.50 Z M 245.50 98.00 L 250.00 96.50 L 256.50 88.00 L 256.50 62.00 L 252.50 55.00 L 245.00 47.50 L 240.00 45.50 L 234.00 45.50 L 226.50 51.00 L 227.50 52.00 L 224.50 55.00 L 225.50 57.00 L 222.50 61.00 L 222.50 74.00 L 224.50 78.00 L 223.50 79.00 L 226.50 83.00 L 225.50 85.00 L 230.50 88.00 L 229.50 91.00 L 234.00 95.50 L 240.00 98.50 L 245.50 98.00 Z M 289.50 87.00 L 294.50 83.00 L 296.50 79.00 L 296.50 67.00 L 294.50 65.00 L 295.50 64.00 L 292.50 59.00 L 288.00 55.50 L 274.00 55.50 L 271.50 59.00 L 273.50 72.00 L 285.50 81.00 L 280.00 80.50 L 278.50 82.00 L 283.00 86.50 L 284.00 85.50 L 286.00 87.50 L 289.50 87.00 Z M 201.50 113.00 L 203.00 111.50 L 205.00 112.50 L 210.50 106.00 L 209.50 101.00 L 207.50 99.00 L 209.50 93.00 L 205.50 84.00 L 206.50 82.00 L 203.50 77.00 L 195.00 69.50 L 185.00 65.50 L 184.00 68.50 L 179.00 69.50 L 176.00 73.50 L 172.00 71.50 L 169.50 76.00 L 171.50 84.00 L 170.50 87.00 L 173.50 90.00 L 175.50 95.00 L 174.50 96.00 L 179.50 101.00 L 178.50 102.00 L 185.00 108.50 L 192.00 112.50 L 201.50 113.00 Z M 165.50 130.00 L 168.50 125.00 L 168.50 118.00 L 157.00 95.50 L 153.00 97.50 L 145.50 105.00 L 144.50 113.00 L 151.50 118.00 L 151.50 120.00 L 147.50 122.00 L 154.00 128.50 L 158.00 128.50 L 160.00 130.50 L 165.50 130.00 Z M 269.50 114.00 L 272.50 111.00 L 272.50 107.00 L 269.00 102.50 L 266.00 101.50 L 263.50 105.00 L 263.50 111.00 L 266.00 113.50 L 269.50 114.00 Z M 234.50 128.00 L 238.50 123.00 L 236.50 119.00 L 237.50 114.00 L 235.00 110.50 L 233.00 111.50 L 230.00 107.50 L 226.00 106.50 L 221.50 113.00 L 221.50 118.00 L 223.50 120.00 L 222.50 121.00 L 230.00 128.50 L 234.50 128.00 Z M 735.00 271.50 L 730.00 269.50 L 719.00 270.50 L 712.00 268.50 L 709.00 264.50 L 707.00 265.50 L 705.00 261.50 L 701.00 261.50 L 701.50 258.00 L 695.50 252.00 L 696.50 250.00 L 690.50 233.00 L 691.50 218.00 L 689.50 216.00 L 690.50 209.00 L 688.50 207.00 L 688.50 203.00 L 692.00 203.50 L 693.50 202.00 L 692.50 201.00 L 694.50 199.00 L 694.50 195.00 L 698.50 185.00 L 697.50 182.00 L 708.50 166.00 L 707.50 165.00 L 719.50 154.00 L 719.50 147.00 L 721.00 146.50 L 724.00 150.50 L 729.00 146.50 L 744.00 140.50 L 747.00 137.50 L 761.00 137.50 L 764.00 138.50 L 771.50 147.00 L 776.50 155.00 L 775.50 159.00 L 781.50 163.00 L 777.50 166.00 L 778.50 167.00 L 776.50 169.00 L 776.50 184.00 L 772.50 192.00 L 772.50 197.00 L 774.50 199.00 L 773.50 204.00 L 771.00 204.50 L 768.00 202.50 L 762.50 211.00 L 754.00 216.50 L 745.00 214.50 L 739.50 210.00 L 735.50 204.00 L 737.50 201.00 L 738.50 188.00 L 736.50 182.00 L 738.00 180.50 L 740.00 181.50 L 743.00 174.50 L 744.00 175.50 L 752.00 167.50 L 758.50 164.00 L 757.50 162.00 L 760.50 156.00 L 757.00 152.50 L 751.00 152.50 L 746.00 154.50 L 739.50 161.00 L 731.50 176.00 L 734.00 178.50 L 737.00 176.50 L 738.50 179.00 L 737.00 180.50 L 736.00 179.50 L 730.50 185.00 L 729.50 189.00 L 732.50 192.00 L 732.50 203.00 L 731.00 204.50 L 729.00 203.50 L 725.50 207.00 L 726.00 213.50 L 727.00 214.50 L 729.00 212.50 L 733.50 215.00 L 733.00 216.50 L 731.00 215.50 L 729.50 217.00 L 729.50 221.00 L 725.50 223.00 L 727.50 228.00 L 727.50 235.00 L 736.00 243.50 L 737.00 242.50 L 743.00 245.50 L 751.00 244.50 L 763.00 238.50 L 764.00 239.50 L 770.00 235.50 L 780.50 225.00 L 779.50 222.00 L 784.50 219.00 L 782.00 217.50 L 780.00 219.50 L 778.50 217.00 L 781.50 215.00 L 782.00 212.50 L 784.00 213.50 L 787.50 210.00 L 787.50 204.00 L 784.50 202.00 L 784.50 200.00 L 787.50 197.00 L 787.50 177.00 L 789.00 174.50 L 790.00 175.50 L 791.50 174.00 L 792.50 166.00 L 795.50 159.00 L 794.00 156.50 L 791.00 157.50 L 789.50 156.00 L 793.50 154.00 L 793.00 149.50 L 797.00 151.50 L 799.50 149.00 L 799.50 144.00 L 803.50 138.00 L 809.50 134.00 L 808.50 130.00 L 811.00 127.50 L 814.00 128.50 L 816.50 124.00 L 819.00 124.50 L 820.00 121.50 L 822.00 122.50 L 823.00 119.50 L 825.00 120.50 L 826.50 119.00 L 825.50 118.00 L 830.50 115.00 L 831.00 112.50 L 836.00 114.50 L 838.00 112.50 L 840.00 113.50 L 845.00 110.50 L 859.00 111.50 L 869.00 114.50 L 871.00 118.50 L 876.00 116.50 L 880.50 123.00 L 877.50 128.00 L 880.50 130.00 L 879.50 132.00 L 882.50 137.00 L 881.50 142.00 L 883.50 173.00 L 880.50 178.00 L 881.50 181.00 L 878.50 185.00 L 875.50 195.00 L 876.50 196.00 L 873.50 199.00 L 869.50 207.00 L 869.50 210.00 L 861.50 218.00 L 862.50 219.00 L 848.00 232.50 L 847.00 231.50 L 835.00 237.50 L 834.00 240.50 L 809.00 239.50 L 802.00 235.50 L 795.00 226.50 L 787.50 238.00 L 791.50 240.00 L 785.00 244.50 L 783.00 243.50 L 770.50 254.00 L 768.50 256.00 L 772.50 259.00 L 771.00 260.50 L 766.00 260.50 L 763.00 258.50 L 759.00 262.50 L 751.00 266.50 L 745.00 268.50 L 743.00 267.50 L 741.00 269.50 L 738.00 268.50 L 735.00 271.50 Z M 830.50 224.00 L 834.00 222.50 L 841.50 213.00 L 840.50 211.00 L 846.50 199.00 L 846.50 192.00 L 848.50 190.00 L 850.50 180.00 L 849.50 173.00 L 846.50 171.00 L 845.50 166.00 L 847.00 163.50 L 849.00 164.50 L 850.50 163.00 L 851.50 142.00 L 849.50 140.00 L 849.50 134.00 L 844.00 126.50 L 837.00 129.50 L 831.50 136.00 L 828.50 145.00 L 830.00 146.50 L 832.00 143.50 L 834.00 143.50 L 833.50 148.00 L 830.50 150.00 L 831.00 155.50 L 828.00 155.50 L 826.00 153.50 L 824.50 155.00 L 821.50 171.00 L 821.50 174.00 L 826.50 177.00 L 828.50 181.00 L 825.50 183.00 L 825.50 193.00 L 821.50 195.00 L 821.50 211.00 L 824.50 220.00 L 830.50 224.00 Z M 196.50 140.00 L 199.50 138.00 L 199.50 135.00 L 195.00 129.50 L 192.00 128.50 L 189.50 132.00 L 189.50 135.00 L 193.00 139.50 L 196.50 140.00 Z M 193.00 495.50 L 186.00 495.50 L 188.00 493.50 L 189.00 494.50 L 190.50 492.00 L 189.00 490.50 L 185.00 491.50 L 180.00 489.50 L 176.00 485.50 L 173.00 487.50 L 171.00 487.50 L 168.00 484.50 L 166.00 485.50 L 164.50 484.00 L 166.50 481.00 L 163.00 477.50 L 160.00 478.50 L 154.50 475.00 L 155.50 472.00 L 154.00 470.50 L 151.00 472.50 L 147.50 469.00 L 148.50 463.00 L 142.50 454.00 L 141.00 452.50 L 137.00 453.50 L 132.50 449.00 L 132.50 445.00 L 135.50 443.00 L 135.50 439.00 L 131.50 430.00 L 128.50 415.00 L 125.50 412.00 L 125.50 394.00 L 122.50 390.00 L 124.50 388.00 L 123.50 358.00 L 125.50 341.00 L 127.50 339.00 L 126.50 334.00 L 128.50 332.00 L 127.50 331.00 L 130.50 322.00 L 130.50 317.00 L 127.50 314.00 L 127.50 310.00 L 129.00 306.50 L 131.00 309.50 L 132.50 308.00 L 134.50 297.00 L 138.50 291.00 L 137.00 289.50 L 129.00 291.50 L 113.00 299.50 L 111.00 302.50 L 108.00 302.50 L 102.00 306.50 L 99.00 310.50 L 98.00 309.50 L 90.00 316.50 L 78.50 330.00 L 76.50 337.00 L 73.50 339.00 L 71.50 345.00 L 72.50 346.00 L 70.50 348.00 L 72.50 355.00 L 74.00 356.50 L 75.00 355.50 L 75.50 358.00 L 73.50 360.00 L 74.00 362.50 L 71.00 358.50 L 68.50 361.00 L 68.50 370.00 L 70.50 373.00 L 70.50 378.00 L 72.50 380.00 L 71.50 382.00 L 77.50 392.00 L 83.00 397.50 L 97.00 406.50 L 104.00 408.50 L 106.00 405.50 L 109.50 406.00 L 105.50 411.00 L 106.50 415.00 L 104.00 415.50 L 102.00 413.50 L 98.50 417.00 L 99.50 420.00 L 97.00 421.50 L 79.00 421.50 L 76.00 418.50 L 68.00 418.50 L 67.00 415.50 L 60.00 416.50 L 60.50 413.00 L 48.00 404.50 L 45.00 406.50 L 42.50 406.00 L 42.50 403.00 L 39.50 400.00 L 40.50 398.00 L 30.50 387.00 L 20.50 369.00 L 21.50 364.00 L 19.50 361.00 L 21.50 337.00 L 25.50 334.00 L 29.50 326.00 L 41.00 312.50 L 42.00 313.50 L 51.00 305.50 L 64.00 297.50 L 86.00 287.50 L 89.00 284.50 L 91.00 285.50 L 96.00 281.50 L 105.00 279.50 L 106.00 276.50 L 110.00 277.50 L 115.00 275.50 L 118.00 276.50 L 126.00 274.50 L 129.00 271.50 L 135.00 271.50 L 139.00 265.50 L 141.50 266.00 L 139.50 269.00 L 141.00 270.50 L 145.00 269.50 L 148.50 265.00 L 150.50 257.00 L 155.50 250.00 L 153.50 248.00 L 157.50 246.00 L 157.50 242.00 L 155.50 240.00 L 156.50 237.00 L 159.00 239.50 L 161.50 237.00 L 158.50 235.00 L 162.00 232.50 L 164.00 233.50 L 166.50 231.00 L 165.50 229.00 L 167.00 229.50 L 170.50 225.00 L 167.50 222.00 L 169.00 220.50 L 170.00 221.50 L 173.00 217.50 L 175.00 218.50 L 177.50 216.00 L 176.50 214.00 L 182.50 210.00 L 181.00 208.50 L 179.00 209.50 L 178.50 207.00 L 182.00 207.50 L 184.00 205.50 L 185.00 206.50 L 189.50 202.00 L 185.50 199.00 L 187.00 197.50 L 193.00 197.50 L 202.00 187.50 L 203.00 188.50 L 223.00 173.50 L 225.00 169.50 L 229.00 169.50 L 246.00 161.50 L 249.00 158.50 L 250.00 159.50 L 276.00 151.50 L 299.00 150.50 L 314.00 153.50 L 324.00 158.50 L 325.00 157.50 L 349.50 181.00 L 350.50 186.00 L 354.50 190.00 L 353.50 191.00 L 355.50 196.00 L 363.50 209.00 L 362.50 214.00 L 364.50 216.00 L 366.50 225.00 L 365.50 228.00 L 367.50 230.00 L 366.50 233.00 L 368.50 235.00 L 368.50 249.00 L 372.00 258.50 L 374.50 254.00 L 381.00 248.50 L 382.50 256.00 L 384.00 257.50 L 386.50 255.00 L 388.50 249.00 L 388.50 243.00 L 386.50 241.00 L 388.00 237.50 L 391.00 237.50 L 393.00 239.50 L 394.50 238.00 L 393.50 235.00 L 396.00 235.50 L 398.50 233.00 L 398.00 231.50 L 400.00 232.50 L 408.00 228.50 L 415.00 228.50 L 422.50 233.00 L 422.50 238.00 L 425.00 240.50 L 427.00 237.50 L 429.50 240.00 L 429.50 247.00 L 426.00 248.50 L 422.50 253.00 L 423.50 255.00 L 421.50 259.00 L 423.00 260.50 L 425.00 258.50 L 429.00 259.50 L 439.00 257.50 L 445.00 260.50 L 451.00 259.50 L 450.50 263.00 L 456.00 265.50 L 458.00 269.50 L 460.00 267.50 L 465.00 272.50 L 472.50 272.00 L 472.00 276.50 L 469.00 273.50 L 464.00 274.50 L 462.00 272.50 L 460.50 274.00 L 461.50 278.00 L 465.50 280.00 L 464.50 287.00 L 468.50 291.00 L 467.50 298.00 L 470.50 302.00 L 464.50 310.00 L 465.50 314.00 L 463.50 317.00 L 465.00 318.50 L 468.50 317.00 L 468.50 327.00 L 466.50 328.00 L 466.50 322.00 L 465.00 320.50 L 462.00 321.50 L 456.50 332.00 L 457.50 333.00 L 454.50 335.00 L 447.50 345.00 L 448.50 346.00 L 434.00 358.50 L 433.00 357.50 L 420.00 365.50 L 414.00 365.50 L 412.00 367.50 L 399.00 366.50 L 396.00 370.50 L 387.00 367.50 L 390.50 364.00 L 382.50 354.00 L 379.50 343.00 L 377.50 341.00 L 378.50 323.00 L 375.50 320.00 L 381.50 318.00 L 383.50 308.00 L 387.50 305.00 L 388.50 302.00 L 396.00 294.50 L 403.00 291.50 L 409.00 291.50 L 414.50 295.00 L 419.50 303.00 L 419.50 312.00 L 424.00 315.50 L 428.50 311.00 L 428.50 304.00 L 430.50 302.00 L 428.50 299.00 L 428.50 290.00 L 430.50 288.00 L 427.50 278.00 L 422.00 273.50 L 416.00 275.50 L 413.00 274.50 L 409.00 278.50 L 408.00 277.50 L 406.00 280.50 L 400.00 283.50 L 394.00 283.50 L 393.50 279.00 L 390.00 275.50 L 387.00 277.50 L 384.50 276.00 L 387.50 271.00 L 386.50 262.00 L 381.00 257.50 L 379.50 259.00 L 379.50 264.00 L 376.50 266.00 L 377.50 267.00 L 376.00 268.50 L 372.00 267.50 L 370.50 269.00 L 367.50 293.00 L 367.50 309.00 L 364.50 315.00 L 365.50 319.00 L 362.50 324.00 L 363.50 327.00 L 361.50 329.00 L 357.50 342.00 L 358.50 346.00 L 356.50 348.00 L 356.50 352.00 L 359.50 353.00 L 358.50 358.00 L 355.50 361.00 L 354.50 367.00 L 351.00 366.50 L 348.50 369.00 L 348.50 374.00 L 340.50 391.00 L 337.50 393.00 L 326.50 413.00 L 327.50 414.00 L 324.50 416.00 L 314.50 431.00 L 294.50 454.00 L 274.00 469.50 L 272.00 473.50 L 268.00 473.50 L 236.00 489.50 L 233.00 488.50 L 230.00 491.50 L 220.00 493.50 L 199.00 493.50 L 197.00 491.50 L 193.00 495.50 Z M 891.00 163.50 L 888.50 163.00 L 888.50 154.00 L 890.00 152.50 L 891.50 154.00 L 889.50 157.00 L 891.50 159.00 L 891.00 163.50 Z M 173.50 162.00 L 182.00 159.50 L 187.50 156.00 L 186.00 154.50 L 170.50 161.00 L 173.50 162.00 Z M 507.00 339.50 L 497.00 337.50 L 489.00 333.50 L 477.50 318.00 L 478.50 316.00 L 475.50 305.00 L 475.50 283.00 L 479.50 262.00 L 484.50 249.00 L 484.50 247.00 L 481.50 245.00 L 485.50 243.00 L 484.50 242.00 L 491.50 236.00 L 497.50 226.00 L 512.50 212.00 L 512.00 210.50 L 514.00 211.50 L 530.00 202.50 L 542.00 202.50 L 545.00 204.50 L 547.00 201.50 L 548.00 202.50 L 554.00 200.50 L 558.00 197.50 L 559.00 198.50 L 563.00 195.50 L 572.00 192.50 L 575.00 193.50 L 579.00 190.50 L 583.50 192.00 L 581.50 199.00 L 582.50 206.00 L 580.50 209.00 L 581.50 213.00 L 579.50 224.00 L 579.50 230.00 L 583.50 233.00 L 581.50 242.00 L 582.50 243.00 L 580.00 244.50 L 579.00 243.50 L 575.50 250.00 L 575.50 267.00 L 573.50 269.00 L 574.50 274.00 L 572.50 276.00 L 572.50 287.00 L 575.00 289.50 L 581.00 289.50 L 585.00 287.50 L 594.50 276.00 L 595.50 272.00 L 591.50 262.00 L 596.50 255.00 L 595.50 250.00 L 602.50 243.00 L 606.50 235.00 L 617.00 226.50 L 625.00 225.50 L 631.50 230.00 L 635.50 240.00 L 634.50 251.00 L 636.50 262.00 L 635.00 264.50 L 631.00 262.50 L 628.50 265.00 L 629.50 267.00 L 628.00 266.50 L 621.50 273.00 L 624.50 274.00 L 624.00 277.50 L 621.00 277.50 L 617.00 281.50 L 614.00 278.50 L 612.50 280.00 L 613.50 284.00 L 618.00 287.50 L 622.00 287.50 L 624.00 283.50 L 627.00 285.50 L 628.50 284.00 L 626.50 281.00 L 629.00 280.50 L 631.00 282.50 L 637.50 276.00 L 637.50 270.00 L 642.50 266.00 L 644.50 261.00 L 645.50 256.00 L 643.50 252.00 L 647.50 247.00 L 646.50 241.00 L 648.50 239.00 L 648.50 229.00 L 646.50 227.00 L 646.50 217.00 L 643.50 211.00 L 638.00 207.50 L 634.00 207.50 L 629.00 209.50 L 626.00 213.50 L 621.00 213.50 L 613.00 216.50 L 607.50 213.00 L 604.50 206.00 L 600.50 203.00 L 603.50 191.00 L 602.50 186.00 L 609.50 173.00 L 616.00 166.50 L 623.00 162.50 L 632.00 162.50 L 637.50 168.00 L 639.50 173.00 L 639.50 188.00 L 637.50 193.00 L 639.00 195.50 L 649.00 193.50 L 652.00 191.50 L 658.00 191.50 L 660.00 193.50 L 664.00 190.50 L 669.50 193.00 L 670.50 195.00 L 667.50 197.00 L 669.00 198.50 L 671.00 197.50 L 674.00 200.50 L 673.50 203.00 L 675.00 204.50 L 681.50 206.00 L 679.50 212.00 L 684.50 224.00 L 681.50 227.00 L 682.50 240.00 L 680.50 242.00 L 681.50 247.00 L 679.50 249.00 L 680.50 256.00 L 676.50 258.00 L 675.50 263.00 L 671.50 270.00 L 673.00 272.50 L 675.50 273.00 L 674.00 274.50 L 670.00 273.50 L 668.50 275.00 L 669.50 277.00 L 668.00 278.50 L 667.00 277.50 L 657.00 288.50 L 656.00 287.50 L 654.00 290.50 L 645.50 295.00 L 647.50 297.00 L 646.00 298.50 L 642.00 296.50 L 632.00 301.50 L 614.00 301.50 L 603.00 292.50 L 599.00 291.50 L 596.50 295.00 L 599.50 300.00 L 596.00 304.50 L 591.00 303.50 L 588.50 306.00 L 589.00 307.50 L 577.00 316.50 L 567.00 320.50 L 560.00 321.50 L 558.50 323.00 L 560.00 325.50 L 552.00 325.50 L 554.50 322.00 L 553.00 320.50 L 543.00 320.50 L 540.00 319.50 L 538.00 316.50 L 535.50 319.00 L 535.50 322.00 L 534.00 321.50 L 524.00 331.50 L 521.00 332.50 L 520.00 335.50 L 517.00 334.50 L 516.00 337.50 L 509.00 337.50 L 507.00 339.50 Z M 210.50 260.00 L 229.00 256.50 L 233.00 253.50 L 241.00 251.50 L 244.00 252.50 L 248.00 249.50 L 253.00 249.50 L 262.00 244.50 L 267.00 244.50 L 270.00 241.50 L 272.00 241.50 L 273.00 238.50 L 276.00 240.50 L 301.00 226.50 L 322.50 205.00 L 323.50 202.00 L 320.00 200.50 L 318.50 197.00 L 324.50 189.00 L 321.50 185.00 L 322.50 184.00 L 321.00 182.50 L 320.00 183.50 L 315.00 176.50 L 305.00 173.50 L 303.00 176.50 L 282.00 176.50 L 271.00 181.50 L 269.00 185.50 L 266.00 184.50 L 265.00 187.50 L 263.00 186.50 L 237.50 210.00 L 237.50 212.00 L 223.50 227.00 L 220.50 233.00 L 222.50 237.00 L 219.00 236.50 L 216.50 241.00 L 212.50 243.00 L 213.50 244.00 L 210.50 246.00 L 211.50 247.00 L 207.50 251.00 L 207.50 254.00 L 203.50 258.00 L 205.00 259.50 L 210.50 260.00 Z M 519.50 313.00 L 529.00 307.50 L 537.50 297.00 L 536.50 296.00 L 539.50 294.00 L 538.50 283.00 L 540.50 281.00 L 540.50 265.00 L 538.50 263.00 L 538.50 258.00 L 541.50 256.00 L 541.50 249.00 L 543.50 247.00 L 543.50 230.00 L 545.50 228.00 L 545.50 221.00 L 544.00 219.50 L 534.00 220.50 L 526.50 226.00 L 528.50 232.00 L 527.00 233.50 L 525.00 232.50 L 521.50 236.00 L 522.00 237.50 L 520.00 236.50 L 518.50 238.00 L 518.50 245.00 L 520.50 248.00 L 518.00 249.50 L 517.00 248.50 L 514.50 251.00 L 515.50 253.00 L 512.50 257.00 L 512.50 269.00 L 508.50 279.00 L 508.50 290.00 L 510.00 291.50 L 512.00 289.50 L 514.50 291.00 L 514.50 298.00 L 513.00 300.50 L 511.00 298.50 L 509.50 301.00 L 510.50 307.00 L 513.50 310.00 L 512.50 311.00 L 516.00 313.50 L 519.50 313.00 Z M 206.50 466.00 L 214.00 464.50 L 217.50 462.00 L 217.00 460.50 L 223.00 460.50 L 230.00 456.50 L 232.50 454.00 L 232.00 451.50 L 235.00 452.50 L 239.00 449.50 L 248.50 440.00 L 250.50 436.00 L 259.50 429.00 L 254.50 424.00 L 262.00 425.50 L 265.50 422.00 L 264.50 421.00 L 268.50 418.00 L 267.50 417.00 L 276.50 407.00 L 275.50 401.00 L 278.00 399.50 L 280.00 400.50 L 285.50 393.00 L 283.50 391.00 L 288.50 388.00 L 285.50 381.00 L 288.00 379.50 L 290.00 381.50 L 291.50 380.00 L 290.50 379.00 L 294.50 377.00 L 297.50 371.00 L 296.50 370.00 L 303.50 359.00 L 300.50 356.00 L 305.50 354.00 L 309.50 345.00 L 305.50 342.00 L 313.50 334.00 L 315.50 328.00 L 309.50 323.00 L 312.50 319.00 L 312.50 314.00 L 308.50 307.00 L 310.50 305.00 L 312.50 298.00 L 314.00 297.50 L 316.50 301.00 L 317.50 310.00 L 316.00 310.50 L 314.00 308.50 L 312.50 311.00 L 313.50 318.00 L 317.00 319.50 L 319.50 316.00 L 318.50 310.00 L 322.50 306.00 L 321.50 302.00 L 324.50 298.00 L 323.50 295.00 L 320.50 294.00 L 320.50 290.00 L 322.00 289.50 L 324.00 293.50 L 325.50 292.00 L 324.50 290.00 L 327.50 284.00 L 326.50 279.00 L 328.50 276.00 L 325.50 272.00 L 325.50 269.00 L 330.50 266.00 L 329.50 250.00 L 332.50 247.00 L 332.50 223.00 L 331.00 221.50 L 324.50 229.00 L 329.50 233.00 L 329.50 241.00 L 328.00 244.50 L 325.50 244.00 L 325.50 233.00 L 323.00 230.50 L 318.50 235.00 L 319.50 236.00 L 318.00 237.50 L 316.00 236.50 L 307.50 244.00 L 309.50 246.00 L 308.00 248.50 L 304.00 245.50 L 297.50 250.00 L 299.50 252.00 L 298.00 253.50 L 293.00 251.50 L 289.00 253.50 L 288.00 256.50 L 283.00 256.50 L 281.00 259.50 L 278.00 258.50 L 276.00 261.50 L 269.00 264.50 L 245.00 272.50 L 242.00 271.50 L 239.50 274.00 L 244.00 275.50 L 245.00 278.50 L 242.00 279.50 L 238.00 276.50 L 237.00 277.50 L 234.00 273.50 L 232.00 273.50 L 228.00 275.50 L 223.00 275.50 L 221.00 277.50 L 218.00 276.50 L 216.00 278.50 L 200.00 280.50 L 193.00 279.50 L 191.50 281.00 L 192.50 283.00 L 190.50 285.00 L 190.50 288.00 L 184.50 301.00 L 179.50 319.00 L 176.50 322.00 L 176.50 328.00 L 173.50 334.00 L 174.50 336.00 L 171.50 341.00 L 172.50 346.00 L 170.50 352.00 L 169.50 365.00 L 166.50 371.00 L 165.50 383.00 L 165.50 405.00 L 167.50 407.00 L 166.50 420.00 L 167.50 425.00 L 169.50 427.00 L 169.50 435.00 L 173.50 441.00 L 173.50 444.00 L 176.00 447.50 L 178.00 446.50 L 180.50 450.00 L 178.50 456.00 L 180.00 457.50 L 181.00 456.50 L 185.00 462.50 L 190.00 465.50 L 206.50 466.00 Z M 1288.00 276.50 L 1285.00 274.50 L 1284.00 275.50 L 1281.00 271.50 L 1267.00 271.50 L 1254.00 260.50 L 1250.00 261.50 L 1246.50 257.00 L 1245.50 254.00 L 1249.50 252.00 L 1253.50 235.00 L 1261.00 228.50 L 1268.00 225.50 L 1281.00 225.50 L 1290.00 230.50 L 1297.50 240.00 L 1296.50 243.00 L 1298.50 253.00 L 1296.50 259.00 L 1298.50 261.00 L 1297.00 263.50 L 1295.00 261.50 L 1293.00 262.50 L 1289.00 267.50 L 1288.00 266.50 L 1286.50 268.00 L 1284.50 271.00 L 1289.50 274.00 L 1288.00 276.50 Z M 1276.50 267.00 L 1279.00 265.50 L 1280.00 266.50 L 1283.50 263.00 L 1274.00 250.50 L 1269.50 252.00 L 1269.50 260.00 L 1268.00 261.50 L 1264.50 260.00 L 1264.50 236.00 L 1272.00 233.50 L 1277.00 235.50 L 1279.00 234.50 L 1283.50 238.00 L 1285.50 245.00 L 1279.50 250.00 L 1284.50 255.00 L 1283.50 256.00 L 1286.50 260.00 L 1284.50 262.00 L 1286.00 263.50 L 1290.50 259.00 L 1289.50 257.00 L 1291.50 254.00 L 1292.50 241.00 L 1286.00 232.50 L 1285.00 233.50 L 1283.00 230.50 L 1275.00 228.50 L 1273.00 230.50 L 1269.00 229.50 L 1267.00 231.50 L 1264.00 231.50 L 1256.50 240.00 L 1255.50 247.00 L 1257.50 254.00 L 1256.50 256.00 L 1262.00 263.50 L 1268.00 266.50 L 1270.00 265.50 L 1272.00 267.50 L 1276.50 267.00 Z M 374.00 236.50 L 373.50 230.00 L 378.00 229.50 L 379.50 233.00 L 374.00 236.50 Z M 535.00 240.50 L 531.50 240.00 L 535.00 232.50 L 536.50 234.00 L 535.00 240.50 Z M 850.00 621.50 L 848.50 617.00 L 851.50 610.00 L 849.50 607.00 L 856.50 603.00 L 856.50 600.00 L 869.50 576.00 L 868.50 575.00 L 870.50 573.00 L 870.50 569.00 L 877.50 561.00 L 876.50 560.00 L 888.50 544.00 L 886.50 539.00 L 890.00 539.50 L 892.50 535.00 L 894.00 533.50 L 895.00 534.50 L 896.50 533.00 L 895.50 532.00 L 900.50 528.00 L 899.50 527.00 L 925.50 499.00 L 940.00 488.50 L 943.00 484.50 L 944.00 485.50 L 947.00 481.50 L 948.00 482.50 L 958.00 475.50 L 981.00 463.50 L 996.00 458.50 L 999.00 454.50 L 1002.00 456.50 L 1015.00 451.50 L 1023.00 450.50 L 1028.00 445.50 L 1032.00 446.50 L 1042.00 443.50 L 1058.00 444.50 L 1062.00 441.50 L 1087.00 440.50 L 1091.00 436.50 L 1096.00 436.50 L 1099.00 441.50 L 1101.00 439.50 L 1111.00 440.50 L 1116.00 437.50 L 1118.00 439.50 L 1122.00 439.50 L 1129.00 438.50 L 1131.00 436.50 L 1142.00 436.50 L 1146.00 433.50 L 1149.00 434.50 L 1151.00 432.50 L 1155.00 433.50 L 1159.00 430.50 L 1165.00 430.50 L 1173.00 425.50 L 1176.00 426.50 L 1179.00 420.50 L 1184.00 422.50 L 1187.00 421.50 L 1189.00 418.50 L 1196.00 416.50 L 1198.00 413.50 L 1199.00 414.50 L 1200.50 413.00 L 1197.50 411.00 L 1199.00 409.50 L 1205.00 410.50 L 1212.00 403.50 L 1213.00 404.50 L 1231.50 385.00 L 1230.50 384.00 L 1237.50 376.00 L 1240.50 369.00 L 1239.50 368.00 L 1242.50 364.00 L 1241.50 361.00 L 1243.50 358.00 L 1239.50 354.00 L 1242.00 350.50 L 1244.00 352.50 L 1245.50 351.00 L 1245.50 345.00 L 1247.50 343.00 L 1247.50 328.00 L 1245.50 321.00 L 1240.50 318.00 L 1242.50 316.00 L 1239.50 310.00 L 1240.50 309.00 L 1237.50 307.00 L 1238.50 306.00 L 1230.00 298.50 L 1229.00 299.50 L 1222.00 294.50 L 1214.00 292.50 L 1201.00 294.50 L 1195.00 298.50 L 1187.50 307.00 L 1184.50 313.00 L 1186.50 323.00 L 1185.50 327.00 L 1182.50 330.00 L 1184.00 333.50 L 1186.00 330.50 L 1188.50 331.00 L 1186.50 336.00 L 1187.50 338.00 L 1183.00 337.50 L 1181.50 339.00 L 1183.50 343.00 L 1179.00 343.50 L 1175.50 351.00 L 1166.50 360.00 L 1166.50 362.00 L 1164.00 362.50 L 1159.00 367.50 L 1143.00 377.50 L 1134.00 379.50 L 1119.00 379.50 L 1108.00 369.50 L 1107.00 370.50 L 1105.50 369.00 L 1106.50 366.00 L 1101.50 356.00 L 1101.50 334.00 L 1106.50 324.00 L 1105.50 320.00 L 1108.50 314.00 L 1110.00 314.50 L 1111.50 313.00 L 1110.50 312.00 L 1119.00 305.50 L 1125.00 303.50 L 1129.00 303.50 L 1135.00 306.50 L 1139.00 305.50 L 1144.50 311.00 L 1140.00 309.50 L 1137.50 311.00 L 1142.50 315.00 L 1141.50 320.00 L 1144.50 324.00 L 1143.50 330.00 L 1138.50 333.00 L 1138.50 337.00 L 1133.50 345.00 L 1126.50 352.00 L 1128.50 355.00 L 1127.00 356.50 L 1122.00 354.50 L 1117.50 357.00 L 1119.50 361.00 L 1124.00 364.50 L 1133.00 361.50 L 1135.00 362.50 L 1136.50 361.00 L 1136.50 356.00 L 1138.00 355.50 L 1140.00 357.50 L 1141.50 356.00 L 1140.50 354.00 L 1144.50 352.00 L 1146.50 348.00 L 1145.50 342.00 L 1148.50 333.00 L 1148.50 324.00 L 1151.50 319.00 L 1151.50 300.00 L 1147.50 289.00 L 1144.00 285.50 L 1133.00 286.50 L 1125.00 290.50 L 1123.00 293.50 L 1117.00 294.50 L 1108.50 289.00 L 1109.50 288.00 L 1103.50 277.00 L 1104.50 274.00 L 1102.50 266.00 L 1106.50 256.00 L 1104.50 253.00 L 1107.00 253.50 L 1109.00 250.50 L 1110.00 251.50 L 1118.00 243.50 L 1121.00 242.50 L 1122.50 241.00 L 1122.00 237.50 L 1134.00 236.50 L 1135.50 239.00 L 1133.50 241.00 L 1140.50 247.00 L 1139.50 250.00 L 1141.00 251.50 L 1143.00 248.50 L 1145.50 249.00 L 1145.50 258.00 L 1142.00 256.50 L 1140.50 258.00 L 1140.50 264.00 L 1142.50 267.00 L 1139.50 270.00 L 1141.00 271.50 L 1149.00 267.50 L 1160.00 267.50 L 1162.00 269.50 L 1166.00 266.50 L 1170.00 273.50 L 1171.00 272.50 L 1174.00 276.50 L 1177.00 275.50 L 1182.50 279.00 L 1179.50 284.00 L 1186.00 290.50 L 1193.00 284.50 L 1204.00 278.50 L 1217.00 278.50 L 1222.00 281.50 L 1228.00 280.50 L 1233.00 282.50 L 1236.00 286.50 L 1237.00 285.50 L 1254.00 301.50 L 1256.00 299.50 L 1257.50 300.00 L 1255.50 304.00 L 1259.50 307.00 L 1258.50 308.00 L 1263.50 318.00 L 1266.50 320.00 L 1267.50 326.00 L 1269.00 327.50 L 1272.00 326.50 L 1273.50 330.00 L 1273.50 336.00 L 1269.50 342.00 L 1269.50 364.00 L 1273.50 370.00 L 1273.50 373.00 L 1268.50 376.00 L 1265.50 388.00 L 1262.50 391.00 L 1262.50 395.00 L 1257.50 402.00 L 1258.50 404.00 L 1256.50 407.00 L 1258.00 408.50 L 1261.50 408.00 L 1254.00 411.50 L 1239.50 430.00 L 1211.00 457.50 L 1210.00 456.50 L 1189.00 471.50 L 1179.00 475.50 L 1178.00 478.50 L 1174.00 477.50 L 1173.00 480.50 L 1166.00 480.50 L 1160.00 482.50 L 1157.00 486.50 L 1141.00 490.50 L 1138.00 489.50 L 1125.00 493.50 L 1121.50 497.00 L 1122.00 498.50 L 1114.00 498.50 L 1098.00 504.50 L 1095.00 503.50 L 1089.50 507.00 L 1090.50 509.00 L 1088.00 511.50 L 1085.00 508.50 L 1083.50 510.00 L 1084.50 511.00 L 1082.00 512.50 L 1073.00 512.50 L 1068.00 516.50 L 1066.00 515.50 L 1058.00 519.50 L 1056.00 522.50 L 1051.00 523.50 L 1046.00 528.50 L 1037.00 532.50 L 1021.50 546.00 L 1023.50 548.00 L 1022.00 551.50 L 1019.00 549.50 L 1014.50 554.00 L 1004.50 572.00 L 998.50 596.00 L 998.50 602.00 L 1000.00 603.50 L 1003.50 602.00 L 1004.50 606.00 L 1002.00 608.50 L 999.00 607.50 L 989.00 597.50 L 986.00 595.50 L 985.00 596.50 L 978.00 590.50 L 976.00 594.50 L 970.00 588.50 L 957.00 585.50 L 952.00 582.50 L 935.00 582.50 L 932.00 586.50 L 929.00 587.50 L 926.00 585.50 L 918.00 585.50 L 916.00 587.50 L 913.00 586.50 L 911.50 588.00 L 913.00 597.50 L 909.50 597.00 L 908.50 592.00 L 910.50 590.00 L 909.00 588.50 L 907.00 588.50 L 904.00 591.50 L 902.00 590.50 L 890.00 595.50 L 884.00 598.50 L 883.00 601.50 L 880.00 600.50 L 870.00 606.50 L 867.00 610.50 L 864.00 610.50 L 856.00 618.50 L 855.00 617.50 L 850.00 621.50 Z M 1273.50 246.00 L 1278.50 243.00 L 1277.00 239.50 L 1271.00 239.50 L 1269.50 241.00 L 1270.50 244.00 L 1273.50 246.00 Z M 732.00 277.50 L 730.00 274.50 L 725.00 274.50 L 721.00 277.50 L 720.50 274.00 L 723.00 272.50 L 736.00 272.50 L 739.50 274.00 L 732.00 277.50 Z M 886.00 478.50 L 867.00 474.50 L 861.50 467.00 L 865.50 464.00 L 861.50 462.00 L 862.50 456.00 L 860.50 451.00 L 860.50 436.00 L 862.50 433.00 L 862.50 402.00 L 864.50 391.00 L 864.50 386.00 L 861.50 384.00 L 864.50 382.00 L 863.00 380.50 L 856.00 385.50 L 846.00 385.50 L 843.00 383.50 L 841.00 384.50 L 838.50 380.00 L 839.50 379.00 L 832.50 372.00 L 834.00 369.50 L 837.50 368.00 L 837.50 359.00 L 840.50 349.00 L 839.50 346.00 L 850.00 334.50 L 853.00 332.50 L 857.00 332.50 L 859.00 330.50 L 864.00 330.50 L 873.50 338.00 L 875.50 351.00 L 873.50 361.00 L 875.00 362.50 L 881.00 359.50 L 883.00 360.50 L 885.00 357.50 L 890.00 356.50 L 892.50 354.00 L 892.00 352.50 L 899.50 354.00 L 899.50 375.00 L 897.50 377.00 L 898.50 399.00 L 896.50 401.00 L 896.50 412.00 L 898.00 413.50 L 901.00 412.50 L 903.50 415.00 L 901.50 417.00 L 902.50 419.00 L 901.00 419.50 L 899.00 417.50 L 895.50 423.00 L 895.50 441.00 L 897.00 442.50 L 902.00 442.50 L 910.50 436.00 L 917.50 422.00 L 916.50 418.00 L 913.50 415.00 L 912.50 409.00 L 912.50 384.00 L 914.50 376.00 L 910.50 373.00 L 915.50 370.00 L 916.50 366.00 L 919.50 363.00 L 921.50 356.00 L 929.50 342.00 L 928.50 341.00 L 931.50 339.00 L 930.50 338.00 L 940.00 328.50 L 949.00 322.50 L 953.00 316.50 L 958.00 317.50 L 961.00 314.50 L 964.00 315.50 L 966.00 313.50 L 980.00 315.50 L 992.50 324.00 L 992.50 329.00 L 996.00 336.50 L 999.00 334.50 L 1001.50 335.00 L 1001.50 341.00 L 997.00 340.50 L 995.50 342.00 L 994.50 360.00 L 988.50 374.00 L 983.50 381.00 L 972.00 390.50 L 964.00 394.50 L 950.00 398.50 L 947.50 402.00 L 949.00 403.50 L 954.00 400.50 L 957.50 401.00 L 953.50 403.00 L 953.50 407.00 L 950.50 409.00 L 952.50 416.00 L 957.00 420.50 L 964.00 418.50 L 967.00 421.50 L 972.00 422.50 L 975.00 419.50 L 978.00 420.50 L 987.00 415.50 L 1002.50 400.00 L 1010.50 382.00 L 1011.50 370.00 L 1007.50 361.00 L 1009.00 358.50 L 1012.00 360.50 L 1014.50 358.00 L 1013.50 357.00 L 1016.50 353.00 L 1013.50 349.00 L 1015.00 346.50 L 1020.00 346.50 L 1028.00 338.50 L 1030.00 339.50 L 1032.00 337.50 L 1037.00 337.50 L 1046.50 347.00 L 1045.50 349.00 L 1048.00 353.50 L 1053.50 351.00 L 1053.50 345.00 L 1057.50 341.00 L 1055.50 328.00 L 1048.00 320.50 L 1039.00 321.50 L 1031.00 326.50 L 1030.00 329.50 L 1028.00 329.50 L 1020.00 327.50 L 1014.50 323.00 L 1015.50 322.00 L 1013.00 319.50 L 1011.50 320.00 L 1011.50 298.00 L 1015.50 291.00 L 1014.50 290.00 L 1025.50 277.00 L 1030.00 274.50 L 1043.50 275.00 L 1041.50 277.00 L 1047.50 281.00 L 1049.50 294.00 L 1052.50 297.00 L 1052.50 301.00 L 1048.50 303.00 L 1047.50 306.00 L 1049.00 307.50 L 1058.00 304.50 L 1071.00 303.50 L 1081.50 311.00 L 1090.50 323.00 L 1090.50 326.00 L 1096.50 331.00 L 1098.50 337.00 L 1095.00 338.50 L 1093.00 336.50 L 1091.50 338.00 L 1092.50 360.00 L 1089.50 365.00 L 1090.50 367.00 L 1087.50 371.00 L 1086.50 376.00 L 1077.50 391.00 L 1066.00 402.50 L 1054.00 410.50 L 1044.00 413.50 L 1040.00 416.50 L 1026.00 416.50 L 1026.00 414.50 L 1015.00 405.50 L 1010.50 412.00 L 1012.50 417.00 L 1011.00 418.50 L 1007.00 417.50 L 999.00 427.50 L 997.00 427.50 L 988.50 435.00 L 997.50 438.00 L 993.00 442.50 L 990.00 442.50 L 985.00 436.50 L 978.00 442.50 L 976.00 441.50 L 962.00 448.50 L 943.00 448.50 L 933.00 442.50 L 932.00 443.50 L 930.00 440.50 L 926.00 445.50 L 923.00 444.50 L 921.50 446.00 L 921.50 450.00 L 919.00 449.50 L 914.50 456.00 L 914.50 458.00 L 917.50 460.00 L 916.50 461.00 L 918.00 463.50 L 914.00 464.50 L 911.00 460.50 L 904.00 467.50 L 898.00 471.50 L 889.00 474.50 L 886.00 478.50 Z M 429.00 699.50 L 407.00 698.50 L 399.00 696.50 L 392.00 692.50 L 387.50 688.00 L 382.50 679.00 L 383.50 677.00 L 381.50 673.00 L 381.50 663.00 L 379.50 661.00 L 379.50 657.00 L 382.00 657.50 L 387.50 653.00 L 391.50 646.00 L 390.50 645.00 L 399.00 636.50 L 400.00 637.50 L 403.00 633.50 L 404.00 634.50 L 406.00 631.50 L 407.00 632.50 L 412.00 628.50 L 413.00 629.50 L 417.00 626.50 L 419.00 627.50 L 427.00 624.50 L 441.00 623.50 L 445.00 621.50 L 451.00 622.50 L 458.50 620.00 L 458.50 614.00 L 460.50 611.00 L 459.50 609.00 L 463.00 604.50 L 466.00 605.50 L 467.50 604.00 L 465.50 602.00 L 468.50 597.00 L 467.50 593.00 L 469.50 591.00 L 469.50 582.00 L 473.50 576.00 L 472.50 573.00 L 474.50 571.00 L 475.50 566.00 L 474.50 561.00 L 476.50 559.00 L 476.50 557.00 L 472.50 554.00 L 477.50 552.00 L 476.50 542.00 L 478.50 540.00 L 475.50 537.00 L 479.50 535.00 L 479.50 522.00 L 481.00 522.50 L 483.50 520.00 L 480.00 516.50 L 476.00 517.50 L 467.00 515.50 L 463.00 512.50 L 462.00 513.50 L 452.00 510.50 L 447.00 510.50 L 443.00 515.50 L 440.50 514.00 L 442.50 512.00 L 441.00 509.50 L 420.00 513.50 L 417.50 506.00 L 417.50 498.00 L 419.00 498.50 L 422.00 494.50 L 425.00 495.50 L 429.00 493.50 L 436.00 493.50 L 438.00 491.50 L 443.00 492.50 L 445.00 490.50 L 464.00 491.50 L 466.00 493.50 L 475.00 494.50 L 487.00 494.50 L 489.50 489.00 L 487.50 483.00 L 491.50 480.00 L 495.50 465.00 L 494.50 464.00 L 495.50 460.00 L 492.50 458.00 L 492.50 455.00 L 494.00 453.50 L 496.00 454.50 L 500.50 449.00 L 499.50 443.00 L 497.50 441.00 L 501.50 435.00 L 500.50 432.00 L 503.00 430.50 L 506.00 432.50 L 508.50 430.00 L 507.50 426.00 L 509.00 426.50 L 511.50 424.00 L 510.50 421.00 L 515.50 417.00 L 514.50 416.00 L 518.50 412.00 L 515.50 409.00 L 517.00 407.50 L 521.00 408.50 L 522.50 407.00 L 521.50 405.00 L 523.00 405.50 L 535.50 393.00 L 533.00 390.50 L 492.00 390.50 L 490.00 393.50 L 486.00 393.50 L 484.00 391.50 L 477.00 390.50 L 475.00 392.50 L 464.00 392.50 L 463.00 395.50 L 457.00 394.50 L 448.00 397.50 L 434.00 405.50 L 420.50 419.00 L 420.50 422.00 L 417.50 424.00 L 418.50 425.00 L 415.50 429.00 L 415.50 435.00 L 413.50 437.00 L 413.50 450.00 L 416.50 455.00 L 415.50 457.00 L 419.50 460.00 L 418.50 462.00 L 424.00 467.50 L 428.00 469.50 L 440.00 469.50 L 444.50 467.00 L 439.50 463.00 L 436.50 458.00 L 435.50 439.00 L 432.00 437.50 L 430.50 434.00 L 438.50 428.00 L 440.50 423.00 L 449.00 414.50 L 451.00 415.50 L 453.00 412.50 L 466.00 414.50 L 477.50 430.00 L 477.50 444.00 L 474.50 457.00 L 470.50 464.00 L 471.50 467.00 L 470.00 468.50 L 469.00 467.50 L 464.00 473.50 L 456.00 479.50 L 449.00 481.50 L 447.00 485.50 L 444.00 485.50 L 442.00 483.50 L 440.00 484.50 L 438.50 486.00 L 440.50 488.00 L 438.00 490.50 L 430.00 489.50 L 428.50 488.00 L 431.50 486.00 L 427.00 483.50 L 420.00 485.50 L 419.00 484.50 L 417.00 486.50 L 413.50 482.00 L 414.50 480.00 L 407.50 474.00 L 403.50 468.00 L 399.00 463.50 L 396.00 465.50 L 394.50 463.00 L 397.50 459.00 L 396.50 436.00 L 393.50 433.00 L 395.50 429.00 L 394.50 427.00 L 396.00 426.50 L 398.00 428.50 L 400.50 426.00 L 399.50 425.00 L 410.50 408.00 L 408.50 404.00 L 413.00 404.50 L 425.00 393.50 L 432.00 389.50 L 434.00 385.50 L 439.00 385.50 L 443.00 379.50 L 449.00 381.50 L 475.00 372.50 L 491.00 373.50 L 512.00 371.50 L 514.00 369.50 L 523.00 369.50 L 529.00 366.50 L 533.00 366.50 L 537.00 370.50 L 553.00 370.50 L 556.00 367.50 L 575.00 367.50 L 585.00 363.50 L 590.00 363.50 L 604.00 359.50 L 608.00 360.50 L 620.00 356.50 L 627.00 353.50 L 630.50 350.00 L 630.00 348.50 L 634.00 349.50 L 638.00 346.50 L 641.00 347.50 L 646.00 342.50 L 648.00 343.50 L 668.50 325.00 L 677.50 309.00 L 676.00 307.50 L 672.00 308.50 L 668.50 306.00 L 670.00 304.50 L 673.00 305.50 L 678.50 302.00 L 683.00 290.50 L 699.00 294.50 L 700.50 296.00 L 700.50 319.00 L 698.50 322.00 L 698.50 333.00 L 695.50 339.00 L 696.50 341.00 L 683.50 363.00 L 667.00 379.50 L 665.00 379.50 L 657.00 385.50 L 656.00 384.50 L 649.00 387.50 L 646.00 390.50 L 644.00 389.50 L 632.00 392.50 L 630.50 395.00 L 636.50 399.00 L 633.00 400.50 L 627.50 398.00 L 629.50 395.00 L 628.00 393.50 L 617.00 394.50 L 614.00 397.50 L 587.00 397.50 L 584.00 394.50 L 568.00 394.50 L 562.00 395.50 L 559.50 398.00 L 560.50 401.00 L 558.00 402.50 L 554.00 400.50 L 552.50 402.00 L 553.50 403.00 L 548.50 407.00 L 549.50 409.00 L 545.50 415.00 L 542.50 424.00 L 543.50 427.00 L 539.50 435.00 L 540.50 441.00 L 542.50 443.00 L 542.50 452.00 L 541.00 454.50 L 539.00 452.50 L 537.50 454.00 L 537.50 458.00 L 534.50 462.00 L 534.50 478.00 L 537.50 482.00 L 536.00 484.50 L 534.00 483.50 L 531.50 486.00 L 532.50 490.00 L 530.50 494.00 L 535.00 495.50 L 537.00 493.50 L 551.00 490.50 L 554.50 488.00 L 554.00 483.50 L 556.00 483.50 L 555.50 485.00 L 560.00 488.50 L 563.00 485.50 L 564.00 486.50 L 568.00 483.50 L 571.00 483.50 L 573.00 480.50 L 574.00 481.50 L 582.00 476.50 L 593.50 466.00 L 595.50 463.00 L 594.50 461.00 L 599.00 453.50 L 612.50 465.00 L 612.50 478.00 L 608.50 480.00 L 609.50 481.00 L 605.50 488.00 L 603.50 497.00 L 598.50 501.00 L 599.50 502.00 L 596.50 504.00 L 597.50 505.00 L 592.50 509.00 L 588.00 515.50 L 587.00 514.50 L 581.50 519.00 L 583.50 521.00 L 583.00 522.50 L 579.00 523.50 L 577.00 521.50 L 574.00 524.50 L 573.00 523.50 L 562.00 528.50 L 561.00 527.50 L 559.50 529.00 L 561.50 531.00 L 555.00 534.50 L 551.00 534.50 L 549.00 530.50 L 527.00 529.50 L 525.50 531.00 L 526.50 535.00 L 523.50 540.00 L 523.50 553.00 L 520.50 558.00 L 520.50 566.00 L 517.50 571.00 L 518.50 575.00 L 516.50 577.00 L 519.50 581.00 L 516.50 583.00 L 516.50 588.00 L 513.50 592.00 L 510.50 605.00 L 506.50 613.00 L 508.50 615.00 L 508.50 618.00 L 503.50 621.00 L 499.50 628.00 L 501.00 629.50 L 506.00 628.50 L 508.00 630.50 L 516.00 629.50 L 518.00 631.50 L 528.00 630.50 L 530.00 632.50 L 563.00 632.50 L 565.00 630.50 L 572.00 631.50 L 574.00 629.50 L 584.00 629.50 L 586.00 627.50 L 589.00 628.50 L 597.00 626.50 L 602.00 622.50 L 605.00 623.50 L 621.00 616.50 L 627.00 612.50 L 633.00 604.50 L 635.00 605.50 L 649.50 587.00 L 653.50 578.00 L 651.50 576.00 L 653.00 572.50 L 655.00 572.50 L 657.00 575.50 L 658.00 574.50 L 664.00 576.50 L 665.00 579.50 L 667.00 578.50 L 669.50 582.00 L 667.50 595.00 L 668.50 603.00 L 665.50 612.00 L 667.50 616.00 L 666.50 618.00 L 660.50 620.00 L 655.50 631.00 L 651.50 636.00 L 652.50 639.00 L 650.00 638.50 L 648.50 640.00 L 649.50 641.00 L 630.00 658.50 L 614.00 666.50 L 606.00 668.50 L 604.00 667.50 L 602.00 669.50 L 598.00 668.50 L 596.00 670.50 L 570.00 670.50 L 558.00 668.50 L 556.00 666.50 L 554.00 667.50 L 552.00 665.50 L 537.00 661.50 L 534.50 663.00 L 535.50 665.00 L 533.00 665.50 L 531.00 663.50 L 525.00 662.50 L 522.00 658.50 L 520.00 658.50 L 517.00 655.50 L 514.00 656.50 L 509.00 652.50 L 503.00 650.50 L 500.00 651.50 L 490.00 646.50 L 488.50 648.00 L 489.50 650.00 L 486.50 651.00 L 487.50 653.00 L 481.50 659.00 L 482.50 662.00 L 480.00 661.50 L 468.50 676.00 L 463.00 679.50 L 459.00 684.50 L 457.00 684.50 L 457.00 687.50 L 454.00 686.50 L 449.00 691.50 L 447.00 690.50 L 439.00 695.50 L 434.00 695.50 L 429.00 699.50 Z M 378.00 312.50 L 376.50 312.00 L 377.50 310.00 L 375.00 302.50 L 378.50 304.00 L 379.50 311.00 L 378.00 312.50 Z M 406.50 352.00 L 413.00 349.50 L 419.50 343.00 L 418.50 341.00 L 422.50 339.00 L 426.50 330.00 L 425.50 327.00 L 428.50 324.00 L 424.00 319.50 L 422.00 321.50 L 420.00 320.50 L 416.50 324.00 L 415.50 328.00 L 412.50 330.00 L 413.50 331.00 L 403.00 341.50 L 397.00 343.50 L 394.50 346.00 L 399.00 352.50 L 406.50 352.00 Z M 950.50 386.00 L 959.00 381.50 L 964.50 376.00 L 963.50 374.00 L 966.50 372.00 L 968.50 367.00 L 967.50 358.00 L 970.50 352.00 L 970.50 339.00 L 968.50 333.00 L 965.00 329.50 L 963.00 329.50 L 956.50 336.00 L 951.50 346.00 L 949.50 354.00 L 950.50 358.00 L 948.50 360.00 L 947.50 366.00 L 949.50 380.00 L 946.50 383.00 L 948.00 386.50 L 950.50 386.00 Z M 1242.00 341.50 L 1239.50 339.00 L 1240.00 330.50 L 1242.50 332.00 L 1242.00 341.50 Z M 1037.50 400.00 L 1041.00 398.50 L 1049.50 390.00 L 1052.50 385.00 L 1051.50 383.00 L 1054.50 380.00 L 1056.50 369.00 L 1053.50 366.00 L 1057.50 362.00 L 1057.50 358.00 L 1055.00 353.50 L 1051.00 356.50 L 1049.00 355.50 L 1046.50 358.00 L 1046.50 366.00 L 1048.00 367.50 L 1052.50 366.00 L 1049.50 371.00 L 1049.50 375.00 L 1048.00 375.50 L 1046.00 373.50 L 1042.00 380.50 L 1041.00 379.50 L 1034.00 387.50 L 1024.50 393.00 L 1030.00 400.50 L 1037.50 400.00 Z M 804.00 375.50 L 798.00 375.50 L 799.50 373.00 L 798.50 371.00 L 805.00 369.50 L 806.50 373.00 L 804.00 375.50 Z M 1092.00 386.50 L 1089.50 384.00 L 1091.00 377.50 L 1095.50 379.00 L 1092.00 386.50 Z M 756.00 578.50 L 749.00 577.50 L 749.50 576.00 L 741.50 568.00 L 742.50 566.00 L 739.50 562.00 L 740.50 554.00 L 739.50 550.00 L 736.50 548.00 L 736.50 546.00 L 739.50 544.00 L 739.50 537.00 L 738.00 535.50 L 731.00 532.50 L 719.00 541.50 L 713.00 543.50 L 703.00 543.50 L 696.00 540.50 L 689.50 534.00 L 690.50 533.00 L 687.50 530.00 L 688.50 525.00 L 687.00 523.50 L 685.00 525.50 L 682.50 525.00 L 682.50 514.00 L 686.50 509.00 L 686.50 505.00 L 682.00 499.50 L 678.00 499.50 L 673.50 503.00 L 674.50 507.00 L 678.50 511.00 L 674.50 516.00 L 674.50 518.00 L 678.50 521.00 L 678.50 524.00 L 674.50 530.00 L 673.50 536.00 L 676.00 538.50 L 679.00 538.50 L 680.00 535.50 L 684.00 536.50 L 689.00 534.50 L 688.50 551.00 L 687.00 550.50 L 678.00 556.50 L 671.00 563.50 L 669.00 562.50 L 667.00 565.50 L 654.00 565.50 L 652.50 567.00 L 653.00 569.50 L 647.50 564.00 L 648.50 561.00 L 644.50 558.00 L 641.50 551.00 L 637.50 549.00 L 637.50 539.00 L 639.50 537.00 L 638.50 523.00 L 640.50 521.00 L 642.50 513.00 L 657.50 498.00 L 658.50 495.00 L 650.50 486.00 L 650.50 480.00 L 647.50 477.00 L 646.50 471.00 L 647.50 462.00 L 643.00 459.50 L 639.00 463.50 L 636.00 462.50 L 634.00 464.50 L 632.50 464.00 L 632.50 450.00 L 634.50 446.00 L 638.50 443.00 L 638.00 441.50 L 640.00 442.50 L 653.00 434.50 L 655.00 435.50 L 660.00 433.50 L 672.00 433.50 L 678.50 442.00 L 683.50 445.00 L 681.50 453.00 L 683.50 456.00 L 683.50 466.00 L 687.00 469.50 L 689.50 467.00 L 689.50 461.00 L 687.50 449.00 L 688.50 441.00 L 685.50 437.00 L 685.50 434.00 L 688.00 434.50 L 689.50 430.00 L 699.00 420.50 L 706.00 417.50 L 708.00 414.50 L 715.00 414.50 L 717.00 416.50 L 718.00 415.50 L 720.00 418.50 L 721.00 417.50 L 722.50 419.00 L 721.50 420.00 L 723.00 421.50 L 728.00 422.50 L 729.50 421.00 L 729.50 410.00 L 739.00 402.50 L 740.00 403.50 L 744.00 400.50 L 747.00 400.50 L 750.00 397.50 L 763.00 397.50 L 773.00 404.50 L 779.50 395.00 L 790.00 384.50 L 798.00 380.50 L 805.00 378.50 L 814.00 378.50 L 821.00 381.50 L 824.00 380.50 L 825.50 382.00 L 824.50 383.00 L 829.00 387.50 L 833.00 386.50 L 836.50 390.00 L 833.00 390.50 L 831.50 393.00 L 833.00 394.50 L 837.00 393.50 L 839.50 396.00 L 839.50 399.00 L 836.50 401.00 L 839.50 405.00 L 839.50 438.00 L 837.50 440.00 L 838.50 451.00 L 835.50 454.00 L 833.50 462.00 L 834.50 466.00 L 831.50 468.00 L 830.50 471.00 L 833.50 474.00 L 833.50 477.00 L 832.00 478.50 L 830.00 476.50 L 827.50 478.00 L 827.50 483.00 L 823.50 485.00 L 820.50 491.00 L 815.50 496.00 L 815.50 498.00 L 809.50 502.00 L 810.00 503.50 L 807.00 505.50 L 806.00 504.50 L 798.00 511.50 L 796.00 510.50 L 790.00 514.50 L 782.00 515.50 L 777.50 519.00 L 776.00 523.50 L 774.00 521.50 L 772.50 523.00 L 773.50 551.00 L 778.00 553.50 L 787.00 549.50 L 788.50 551.00 L 787.50 564.00 L 784.00 570.50 L 783.00 569.50 L 765.00 577.50 L 756.00 578.50 Z M 451.00 406.50 L 447.50 404.00 L 451.00 400.50 L 455.00 400.50 L 457.50 403.00 L 457.00 404.50 L 453.00 404.50 L 451.00 406.50 Z M 782.50 498.00 L 789.50 494.00 L 787.50 492.00 L 788.00 490.50 L 792.00 491.50 L 797.50 485.00 L 800.50 477.00 L 799.50 471.00 L 801.50 469.00 L 802.50 460.00 L 805.50 458.00 L 806.50 453.00 L 807.50 440.00 L 804.50 436.00 L 805.50 425.00 L 804.50 421.00 L 801.50 418.00 L 801.50 413.00 L 805.50 411.00 L 803.50 407.00 L 798.00 402.50 L 794.00 402.50 L 789.00 405.50 L 780.50 414.00 L 776.50 421.00 L 776.50 460.00 L 774.50 462.00 L 775.50 486.00 L 773.50 491.00 L 773.50 497.00 L 775.00 498.50 L 782.50 498.00 Z M 856.00 417.50 L 852.00 414.50 L 850.00 415.50 L 849.50 414.00 L 855.00 413.50 L 857.00 411.50 L 857.50 415.00 L 856.00 417.50 Z M 725.50 511.00 L 730.00 509.50 L 738.50 500.00 L 737.00 498.50 L 734.00 499.50 L 733.50 497.00 L 739.00 495.50 L 741.50 493.00 L 739.50 481.00 L 743.50 453.00 L 743.50 438.00 L 742.50 427.00 L 740.00 422.50 L 733.00 426.50 L 730.00 425.50 L 725.50 429.00 L 726.50 437.00 L 724.50 446.00 L 717.50 460.00 L 718.50 461.00 L 714.50 464.00 L 715.50 465.00 L 713.50 467.00 L 716.50 470.00 L 717.50 475.00 L 716.00 475.50 L 710.00 468.50 L 706.50 472.00 L 719.00 482.50 L 724.00 483.50 L 723.50 486.00 L 725.00 487.50 L 727.00 488.50 L 729.00 486.50 L 732.50 488.00 L 730.50 490.00 L 732.50 493.00 L 731.00 494.50 L 725.00 491.50 L 723.50 490.00 L 724.50 489.00 L 719.00 484.50 L 717.50 486.00 L 721.50 500.00 L 720.50 510.00 L 722.00 511.50 L 725.50 511.00 Z M 1005.00 598.50 L 1003.50 582.00 L 1007.00 580.50 L 1005.50 587.00 L 1006.50 596.00 L 1005.00 598.50 Z M 440.00 619.50 L 430.00 619.50 L 429.50 617.00 L 431.00 614.50 L 435.00 613.50 L 439.00 617.50 L 440.50 617.00 L 440.00 619.50 Z M 419.50 682.00 L 432.00 676.50 L 436.50 670.00 L 444.50 664.00 L 442.50 662.00 L 447.50 660.00 L 454.50 647.00 L 453.50 644.00 L 457.50 641.00 L 456.00 638.50 L 442.00 639.50 L 438.00 637.50 L 435.00 639.50 L 432.00 638.50 L 430.00 640.50 L 426.00 639.50 L 421.50 642.00 L 423.00 646.50 L 422.00 645.50 L 416.00 650.50 L 414.00 648.50 L 413.00 649.50 L 411.00 646.50 L 402.50 654.00 L 398.50 662.00 L 398.50 671.00 L 400.00 672.50 L 404.00 671.50 L 405.50 673.00 L 400.50 678.00 L 403.00 680.50 L 405.00 679.50 L 408.00 681.50 L 419.50 682.00 Z M 409.00 664.50 L 407.50 663.00 L 407.50 659.00 L 410.00 657.50 L 412.50 659.00 L 412.50 663.00 L 411.00 662.50 L 409.00 664.50 Z" fill="#ea1d2c" fill-rule="evenodd"/>
</svg>